<?xml version="1.0" standalone="no"?><!DOCTYPE svg PUBLIC "-//W3C//DTD SVG 1.1//EN" "http://www.w3.org/Graphics/SVG/1.1/DTD/svg11.dtd"><svg t="1714049531335" class="icon" viewBox="0 0 1024 1024" version="1.1" xmlns="http://www.w3.org/2000/svg" p-id="15847" width="32" height="32" xmlns:xlink="http://www.w3.org/1999/xlink"><path d="M825.13408 552.86784h-272.2816v269.50656c0 53.18656 42.99264 97.67424 95.70816 97.67424h180.66944c52.69504 0 91.10016-43.99104 91.10016-97.67424v-171.83744c0-54.1952-42.48064-97.66912-95.19616-97.66912z" fill="#816CFF" p-id="15848"></path><path d="M104.05888 650.55744v172.3904c0 53.35552 42.91584 97.98144 95.03744 97.98144h178.2784c52.64384 0 95.04256-44.12928 95.04256-97.98144v-270.37184H199.09632c-51.6096 0-95.03744 44.12928-95.03744 97.98144z" fill="#3CDBB0" p-id="15849"></path><path d="M375.8848 104.9088H197.98016c-51.3536 0-94.5664 44.47232-94.5664 97.6384v170.72128c0 54.19008 42.7008 98.1504 94.5664 98.1504h271.95392V202.5472c0-54.21056-42.7008-97.6384-94.04928-97.6384z" fill="#FB5734" p-id="15850"></path><path d="M825.89696 101.7344H649.3696c-52.70016 0-95.16544 43.88352-95.16544 97.44384v268.90752h272.2048c52.20352 0 94.1568-43.88864 94.1568-97.44896V199.17824c0.512-54.0672-41.95328-97.44896-94.6688-97.44896z" fill="#FFD22B" p-id="15851"></path></svg>